HIERARCHY
ROOT Hips
{
	OFFSET -0.001795 -0.223333 0.028219
	CHANNELS 6 Xposition Yposition Zposition Zrotation Yrotation Xrotation 
	JOINT LeftUpLeg
	{
		OFFSET 0.069520 -0.091406 -0.006815
		CHANNELS 3 Zrotation Yrotation Xrotation
		JOINT LeftLeg
		{
			OFFSET 0.034277 -0.375199 -0.004496
			CHANNELS 3 Zrotation Yrotation Xrotation
			JOINT LeftFoot
			{
				OFFSET -0.013596 -0.397961 -0.043693
				CHANNELS 3 Zrotation Yrotation Xrotation
				JOINT LeftToe
				{
					OFFSET 0.026358 -0.055791 0.119288
					CHANNELS 3 Zrotation Yrotation Xrotation
					End Site
					{
						OFFSET 0.000000 0.000000 0.000000
					}
				}
			}
		}
	}
	JOINT RightUpLeg
	{
		OFFSET -0.067670 -0.090522 -0.004320
		CHANNELS 3 Zrotation Yrotation Xrotation
		JOINT RightLeg
		{
			OFFSET -0.038290 -0.382569 -0.008850
			CHANNELS 3 Zrotation Yrotation Xrotation
			JOINT RightFoot
			{
				OFFSET 0.015774 -0.398415 -0.042312
				CHANNELS 3 Zrotation Yrotation Xrotation
				JOINT RightToe
				{
					OFFSET -0.025372 -0.048144 0.123348
					CHANNELS 3 Zrotation Yrotation Xrotation
					End Site
					{
						OFFSET 0.000000 0.000000 0.000000
					}
				}
			}
		}
	}
	JOINT Spine
	{
		OFFSET -0.002533 0.108963 -0.026696
		CHANNELS 3 Zrotation Yrotation Xrotation
		JOINT Spine1
		{
			OFFSET 0.005487 0.135180 0.001092
			CHANNELS 3 Zrotation Yrotation Xrotation
			JOINT Spine2
			{
				OFFSET 0.001457 0.052922 0.025425
				CHANNELS 3 Zrotation Yrotation Xrotation
				JOINT Neck
				{
					OFFSET -0.002778 0.213870 -0.042857
					CHANNELS 3 Zrotation Yrotation Xrotation
					JOINT Head
					{
						OFFSET 0.005152 0.064970 0.051349
						CHANNELS 3 Zrotation Yrotation Xrotation
						End Site
						{
							OFFSET 0.000000 0.000000 0.000000
						}
					}
				}
				JOINT LeftShoulder
				{
					OFFSET 0.078845 0.121749 -0.034090
					CHANNELS 3 Zrotation Yrotation Xrotation
					JOINT LeftArm
					{
						OFFSET 0.090977 0.030469 -0.008868
						CHANNELS 3 Zrotation Yrotation Xrotation
						JOINT LeftForeArm
						{
							OFFSET 0.259612 -0.012772 -0.027456
							CHANNELS 3 Zrotation Yrotation Xrotation
							JOINT LeftHand
							{
								OFFSET 0.249234 0.008986 -0.001171
								CHANNELS 3 Zrotation Yrotation Xrotation
								End Site
								{
									OFFSET 0.000000 0.000000 0.000000
								}
							}
						}
					}
				}
				JOINT RightShoulder
				{
					OFFSET -0.081759 0.118833 -0.038615
					CHANNELS 3 Zrotation Yrotation Xrotation
					JOINT RightArm
					{
						OFFSET -0.096012 0.032551 -0.009143
						CHANNELS 3 Zrotation Yrotation Xrotation
						JOINT RightForeArm
						{
							OFFSET -0.253742 -0.013329 -0.021401
							CHANNELS 3 Zrotation Yrotation Xrotation
							JOINT RightHand
							{
								OFFSET -0.255298 0.007772 -0.005559
								CHANNELS 3 Zrotation Yrotation Xrotation
								End Site
								{
									OFFSET 0.000000 0.000000 0.000000
								}
							}
						}
					}
				}
			}
		}
	}
}
MOTION
Frames: 5
Frame Time: 0.050000
-0.002478 0.781837 0.018929 -0.039551 -8.612796 2.246706 18.888587 -1.104396 43.960173 -19.146716 -4.780176 -66.053243 95.498902 33.363475 114.757677 0.000000 0.000000 0.000000 -31.126572 9.488992 32.673580 18.909250 8.526901 -62.961538 -98.058233 -37.928776 113.883203 0.000000 0.000000 0.000000 4.761705 1.994468 -19.421843 2.386913 1.361691 -43.481232 3.079685 7.819696 56.033805 9.149524 2.875616 -95.391936 0.000000 0.000000 0.000000 -21.807062 -1.162246 0.922561 -25.322397 -18.421438 -4.487247 1.866030 46.493170 -0.249602 0.000000 0.000000 0.000000 6.922989 -4.972479 -1.696136 16.125840 4.507080 -3.897188 -24.467116 -33.590792 7.004085 0.000000 0.000000 0.000000 
-0.002478 0.786441 0.018929 -0.188708 -8.832077 2.494532 18.762284 -0.994779 41.362778 -18.794556 -4.025891 -62.299701 99.516879 35.131092 113.975787 0.000000 0.000000 0.000000 -30.637370 8.643711 29.768815 19.204019 7.967841 -58.504409 -100.487965 -40.187552 111.854009 0.000000 0.000000 0.000000 5.008877 1.983658 -18.985082 1.599013 1.230343 -41.152237 3.973607 8.110901 53.219203 9.242779 2.653844 -92.961591 0.000000 0.000000 0.000000 -21.011692 -1.015730 0.547965 -24.649368 -17.279236 -4.181392 1.613216 45.527928 -0.557157 0.000000 0.000000 0.000000 6.989884 -6.450391 -2.398652 14.990228 3.009566 -3.565329 -25.808566 -31.223360 6.882420 0.000000 0.000000 0.000000 
-0.002478 0.790224 0.018929 -0.331692 -8.687588 2.659586 18.714294 -1.014545 40.130774 -18.345912 -3.678662 -60.962696 99.842151 34.863081 114.402359 0.000000 0.000000 0.000000 -30.434881 8.353388 29.014009 19.604505 7.951666 -57.537907 -100.573792 -39.609757 112.573629 0.000000 0.000000 0.000000 4.990002 1.901447 -18.454711 1.159146 1.212563 -40.263733 4.289405 8.053543 52.008956 8.443134 2.776177 -92.370589 0.000000 0.000000 0.000000 -18.991814 -0.459273 0.166072 -25.084061 -16.985386 -4.070692 1.820404 46.491883 -0.492113 0.000000 0.000000 0.000000 6.023887 -6.982167 -2.667184 14.781016 1.344579 -3.472243 -27.881626 -30.696315 7.376271 0.000000 0.000000 0.000000 
-0.002478 0.793017 0.018929 -0.242615 -8.395333 2.353799 18.910811 -1.129690 38.573316 -18.623336 -3.566548 -58.205605 103.550656 36.031354 114.104275 0.000000 0.000000 0.000000 -30.411840 7.882650 27.541317 20.314123 7.584751 -54.236280 -102.494209 -41.428854 111.232905 0.000000 0.000000 0.000000 4.904820 1.793179 -17.779083 1.232228 1.070050 -38.458000 4.021336 8.819973 50.262264 9.798205 2.634724 -90.739670 0.000000 0.000000 0.000000 -16.796779 0.105445 -0.429432 -25.011329 -17.488025 -3.650299 2.443293 46.371807 -0.417026 0.000000 0.000000 0.000000 6.206073 -7.586826 -2.922765 13.827853 1.020328 -3.179926 -28.818856 -30.086004 7.575413 0.000000 0.000000 0.000000 
-0.002478 0.795602 0.018929 -0.220435 -8.278749 1.803071 19.172847 -1.216619 38.247819 -18.961212 -3.626017 -57.020579 105.028890 36.036831 114.510798 0.000000 0.000000 0.000000 -30.539461 7.855821 27.538567 20.816268 7.563249 -53.135636 -101.675386 -41.784249 110.528890 0.000000 0.000000 0.000000 4.770833 1.719415 -17.294807 1.290846 1.079628 -38.776416 4.330239 8.624865 51.354514 11.223419 2.687845 -91.806937 0.000000 0.000000 0.000000 -16.474948 -0.402017 -0.085923 -24.077992 -17.760209 -3.637616 0.569884 47.034390 -1.290289 0.000000 0.000000 0.000000 6.749430 -7.044239 -2.665269 13.153240 1.753449 -3.060703 -30.423470 -32.237680 8.548671 0.000000 0.000000 0.000000 
